<?xml version="1.0" encoding="utf-8"?>
<!-- Generator: Adobe Illustrator 19.0.0, SVG Export Plug-In . SVG Version: 6.00 Build 0)  -->
<svg version="1.1" id="Layer_1" xmlns="http://www.w3.org/2000/svg" xmlns:xlink="http://www.w3.org/1999/xlink" x="0px" y="0px"
	 viewBox="0 0 612 792" style="enable-background:new 0 0 612 792;" xml:space="preserve">
<style type="text/css">
	.st0{fill:#D1D3D4;}
	.st1{fill:#FEEEEF;}
	.st2{fill:#EE4C62;}
	.st3{fill:#ED1C24;}
	.st4{font-family:'Poppins-Regular';}
	.st5{font-size:21px;}
</style>
<g id="XMLID_3_">
	<g id="XMLID_2_">
		<path id="XMLID_44_" shape-rendering="crispEdges" class="st0" d="M107.6,236.5c0-27.6,22.4-50,50-50h240c5.5,0,10,4.5,10,10v50
			c0,27.6-22.4,50-50,50h-240c-5.5,0-10-4.5-10-10V236.5z"/>
		<circle id="XMLID_43_" class="st1" cx="162.6" cy="241.5" r="25"/>
		<path id="XMLID_42_" class="st2" d="M168.7,252c-1,0-2.3-0.3-4.3-1.5c-2.4-1.4-4.3-2.6-6.7-5c-2.3-2.3-3.5-3.8-5.1-6.7
			c-1.8-3.3-1.5-5-1.1-5.7c0.4-0.9,1-1.4,1.8-1.9c0.4-0.3,0.9-0.5,1.4-0.7c0,0,0.1,0,0.1-0.1c0.2-0.1,0.6-0.3,1.1-0.1
			c0.3,0.1,0.6,0.4,1,0.8c0.9,0.9,2.1,2.8,2.5,3.8c0.3,0.6,0.5,1.1,0.5,1.5c0,0.6-0.3,1-0.6,1.5c-0.1,0.1-0.1,0.2-0.2,0.3
			c-0.4,0.5-0.5,0.6-0.4,0.9c0.1,0.5,0.9,2,2.3,3.3s2.8,2.1,3.3,2.2c0.3,0.1,0.4,0,0.9-0.4c0.1-0.1,0.1-0.1,0.2-0.2
			c0.5-0.4,0.9-0.7,1.5-0.7h0c0.5,0,0.9,0.2,1.6,0.5c0.9,0.4,2.9,1.6,3.8,2.5c0.4,0.4,0.7,0.7,0.8,1c0.2,0.5,0,0.8-0.1,1.1
			c0,0,0,0.1-0.1,0.1c-0.2,0.5-0.5,1-0.7,1.4c-0.5,0.8-1,1.4-1.9,1.8C169.7,251.8,169.2,252,168.7,252z"/>
		<path id="XMLID_23_" class="st3" d="M214.7,234.6c-0.9,0-1.6-0.2-2.4-0.6c-0.7-0.4-1.3-1-1.7-1.7c-0.4-0.7-0.6-1.5-0.6-2.4
			s0.2-1.7,0.6-2.4c0.4-0.7,1-1.3,1.7-1.7c0.7-0.4,1.5-0.6,2.4-0.6c0.9,0,1.6,0.2,2.4,0.6c0.7,0.4,1.3,1,1.7,1.7
			c0.4,0.7,0.6,1.5,0.6,2.4s-0.2,1.7-0.6,2.4c-0.4,0.7-1,1.3-1.7,1.7S215.6,234.6,214.7,234.6z M214.7,232.6c0.7,0,1.3-0.2,1.7-0.7
			c0.4-0.5,0.7-1.1,0.7-1.9c0-0.8-0.2-1.4-0.7-1.9c-0.4-0.5-1-0.7-1.7-0.7c-0.7,0-1.3,0.2-1.8,0.7c-0.4,0.5-0.7,1.1-0.7,1.9
			c0,0.8,0.2,1.5,0.7,1.9C213.4,232.3,214,232.6,214.7,232.6z M229.2,234.5H227l-3.7-5.6v5.6H221v-9.1h2.2l3.7,5.7v-5.7h2.2V234.5z
			 M233.4,232.8h2.9v1.7h-5.1v-9.1h2.2V232.8z M240,225.4v9.1h-2.2v-9.1H240z M250.2,234.5H248l-3.7-5.6v5.6H242v-9.1h2.2l3.7,5.7
			v-5.7h2.2V234.5z M254.4,227.2v1.8h3v1.7h-3v2h3.4v1.8h-5.6v-9.1h5.6v1.8H254.4z M266,234.6c-0.7,0-1.3-0.1-1.8-0.3
			c-0.5-0.2-1-0.5-1.3-1c-0.3-0.4-0.5-0.9-0.5-1.5h2.4c0,0.3,0.2,0.6,0.4,0.8c0.2,0.2,0.5,0.3,0.8,0.3c0.3,0,0.6-0.1,0.8-0.2
			c0.2-0.2,0.3-0.4,0.3-0.6c0-0.2-0.1-0.4-0.2-0.6c-0.1-0.1-0.3-0.3-0.6-0.4c-0.2-0.1-0.5-0.2-0.9-0.3c-0.6-0.2-1.1-0.4-1.4-0.5
			c-0.4-0.2-0.7-0.5-1-0.8c-0.3-0.4-0.4-0.8-0.4-1.4c0-0.8,0.3-1.5,0.9-2c0.6-0.5,1.4-0.7,2.4-0.7c1,0,1.8,0.2,2.4,0.7
			c0.6,0.5,0.9,1.1,1,2h-2.4c0-0.3-0.1-0.5-0.3-0.7c-0.2-0.2-0.5-0.3-0.8-0.3c-0.3,0-0.5,0.1-0.6,0.2c-0.2,0.1-0.2,0.3-0.2,0.6
			c0,0.3,0.1,0.5,0.4,0.7c0.3,0.2,0.7,0.3,1.3,0.5c0.6,0.2,1.1,0.4,1.4,0.6c0.4,0.2,0.7,0.4,1,0.8c0.3,0.3,0.4,0.8,0.4,1.3
			c0,0.5-0.1,1-0.4,1.4c-0.3,0.4-0.6,0.8-1.1,1C267.3,234.5,266.7,234.6,266,234.6z M273.3,225.4v5.5c0,0.5,0.1,1,0.4,1.3
			c0.3,0.3,0.7,0.4,1.2,0.4c0.5,0,0.9-0.1,1.2-0.4c0.3-0.3,0.4-0.7,0.4-1.3v-5.5h2.2v5.4c0,0.8-0.2,1.5-0.5,2.1
			c-0.3,0.6-0.8,1-1.4,1.3c-0.6,0.3-1.2,0.4-1.9,0.4s-1.4-0.1-1.9-0.4c-0.6-0.3-1-0.7-1.3-1.3c-0.3-0.6-0.5-1.3-0.5-2.1v-5.4H273.3z
			 M287.6,228.3c0,0.5-0.1,1-0.4,1.5c-0.2,0.4-0.6,0.8-1.1,1.1c-0.5,0.3-1.1,0.4-1.9,0.4h-1.4v3.3h-2.2v-9.1h3.6
			c0.7,0,1.3,0.1,1.8,0.4c0.5,0.3,0.9,0.6,1.1,1C287.5,227.2,287.6,227.8,287.6,228.3z M284.1,229.5c0.4,0,0.7-0.1,0.9-0.3
			c0.2-0.2,0.3-0.5,0.3-0.8s-0.1-0.6-0.3-0.8s-0.5-0.3-0.9-0.3h-1.2v2.3H284.1z M296.1,228.3c0,0.5-0.1,1-0.4,1.5
			c-0.2,0.4-0.6,0.8-1.1,1.1c-0.5,0.3-1.1,0.4-1.9,0.4h-1.4v3.3h-2.2v-9.1h3.6c0.7,0,1.3,0.1,1.8,0.4c0.5,0.3,0.9,0.6,1.1,1
			C296,227.2,296.1,227.8,296.1,228.3z M292.6,229.5c0.4,0,0.7-0.1,0.9-0.3c0.2-0.2,0.3-0.5,0.3-0.8s-0.1-0.6-0.3-0.8
			c-0.2-0.2-0.5-0.3-0.9-0.3h-1.2v2.3H292.6z M302,234.6c-0.9,0-1.6-0.2-2.4-0.6c-0.7-0.4-1.3-1-1.7-1.7c-0.4-0.7-0.6-1.5-0.6-2.4
			s0.2-1.7,0.6-2.4c0.4-0.7,1-1.3,1.7-1.7c0.7-0.4,1.5-0.6,2.4-0.6s1.6,0.2,2.4,0.6c0.7,0.4,1.3,1,1.7,1.7c0.4,0.7,0.6,1.5,0.6,2.4
			s-0.2,1.7-0.6,2.4c-0.4,0.7-1,1.3-1.7,1.7C303.7,234.4,302.9,234.6,302,234.6z M302,232.6c0.7,0,1.3-0.2,1.7-0.7
			c0.4-0.5,0.7-1.1,0.7-1.9c0-0.8-0.2-1.4-0.7-1.9c-0.4-0.5-1-0.7-1.7-0.7c-0.7,0-1.3,0.2-1.8,0.7c-0.4,0.5-0.6,1.1-0.6,1.9
			c0,0.8,0.2,1.5,0.6,1.9C300.7,232.3,301.3,232.6,302,232.6z M313,234.5l-1.9-3.4h-0.5v3.4h-2.2v-9.1h3.7c0.7,0,1.3,0.1,1.8,0.4
			c0.5,0.3,0.9,0.6,1.1,1c0.3,0.4,0.4,0.9,0.4,1.5c0,0.6-0.2,1.1-0.5,1.6c-0.3,0.5-0.8,0.8-1.5,1l2.1,3.6H313z M310.5,229.5h1.4
			c0.4,0,0.7-0.1,0.9-0.3c0.2-0.2,0.3-0.5,0.3-0.8c0-0.3-0.1-0.6-0.3-0.8c-0.2-0.2-0.5-0.3-0.9-0.3h-1.4V229.5z M323.7,225.4v1.8
			h-2.4v7.3h-2.2v-7.3h-2.4v-1.8H323.7z"/>
	</g>
	<text id="XMLID_1_" transform="matrix(1 0 0 1 194.0376 261.4862)" class="st3 st4 st5">92580888880</text>
</g>
</svg>
